<?xml version="1.0" encoding="UTF-8" standalone="no"?><!DOCTYPE svg PUBLIC "-//W3C//DTD SVG 1.1//EN" "http://www.w3.org/Graphics/SVG/1.1/DTD/svg11.dtd"><svg width="308" height="58" viewBox="0 0 308 58" version="1.1" xmlns="http://www.w3.org/2000/svg" xmlns:xlink="http://www.w3.org/1999/xlink" xml:space="preserve" style="fill-rule:evenodd;clip-rule:evenodd;stroke-linejoin:round;stroke-miterlimit:1.41421;"><path d="M11.531,43.746c-2.671,0 -4.723,-0.47 -6.157,-1.41c-1.435,-0.939 -2.418,-2.33 -2.949,-4.173c-0.532,-1.842 -0.798,-4.296 -0.798,-7.363c0,-3.363 0.291,-5.984 0.872,-7.864c0.581,-1.879 1.552,-3.233 2.912,-4.061c1.36,-0.829 3.264,-1.243 5.712,-1.243c2.251,0 4.761,0.334 7.53,1.001l-0.148,4.081c-2.448,-0.371 -4.439,-0.557 -5.972,-0.557c-1.558,0 -2.733,0.248 -3.524,0.742c-0.792,0.495 -1.342,1.305 -1.651,2.43c-0.309,1.125 -0.464,2.714 -0.464,4.766l0,1.373c0.05,2.127 0.204,3.715 0.464,4.766c0.26,1.051 0.773,1.812 1.54,2.282c0.766,0.47 1.941,0.704 3.523,0.704c1.682,0 3.71,-0.173 6.084,-0.519l0.111,4.192c-2.695,0.569 -5.057,0.853 -7.085,0.853Z" style="fill:#fff;fill-rule:nonzero;"/><path d="M29.596,43.746c-2.795,0 -4.915,-0.847 -6.362,-2.541c-1.446,-1.694 -2.17,-4.099 -2.17,-7.215c0,-3.091 0.724,-5.477 2.17,-7.159c1.447,-1.681 3.567,-2.522 6.362,-2.522c2.794,0 4.915,0.841 6.361,2.522c1.447,1.682 2.17,4.068 2.17,7.159c0,3.116 -0.723,5.521 -2.17,7.215c-1.446,1.694 -3.567,2.541 -6.361,2.541Zm0,-4.229c1.187,0 2.065,-0.433 2.634,-1.298c0.568,-0.866 0.853,-2.275 0.853,-4.229c0,-1.953 -0.285,-3.351 -0.853,-4.191c-0.569,-0.841 -1.447,-1.262 -2.634,-1.262c-1.187,0 -2.065,0.421 -2.634,1.262c-0.569,0.84 -0.853,2.238 -0.853,4.191c0,1.954 0.284,3.363 0.853,4.229c0.569,0.865 1.447,1.298 2.634,1.298Z" style="fill:#fff;fill-rule:nonzero;"/><path d="M41.763,24.754l4.933,0l0,1.039c0.915,-0.52 1.713,-0.897 2.393,-1.132c0.68,-0.235 1.391,-0.352 2.133,-0.352c0.865,0 1.7,0.142 2.503,0.426c0.804,0.285 1.466,0.724 1.985,1.317c1.162,-0.593 2.256,-1.032 3.283,-1.317c1.026,-0.284 2.071,-0.426 3.134,-0.426c2.3,0 3.932,0.705 4.896,2.114c0.965,1.41 1.447,3.685 1.447,6.825l0,10.053l-4.97,0l0,-9.904c0,-1.657 -0.186,-2.844 -0.557,-3.561c-0.371,-0.717 -1.063,-1.076 -2.077,-1.076c-0.717,0 -1.669,0.173 -2.856,0.519l-0.557,0.186c0.099,1.657 0.149,3.066 0.149,4.228l0,9.608l-4.971,0l0,-9.533c0,-1.336 -0.068,-2.35 -0.204,-3.042c-0.136,-0.692 -0.396,-1.193 -0.779,-1.502c-0.383,-0.309 -0.958,-0.464 -1.725,-0.464c-0.791,0 -1.706,0.173 -2.745,0.519l-0.445,0.149l0,13.873l-4.97,0l0,-18.547Z" style="fill:#fff;fill-rule:nonzero;"/><path d="M72.884,24.754l4.934,0l0,1.039c0.915,-0.52 1.712,-0.897 2.392,-1.132c0.68,-0.235 1.391,-0.352 2.133,-0.352c0.866,0 1.7,0.142 2.504,0.426c0.804,0.285 1.465,0.724 1.985,1.317c1.162,-0.593 2.256,-1.032 3.282,-1.317c1.027,-0.284 2.071,-0.426 3.135,-0.426c2.3,0 3.932,0.705 4.896,2.114c0.965,1.41 1.447,3.685 1.447,6.825l0,10.053l-4.971,0l0,-9.904c0,-1.657 -0.185,-2.844 -0.556,-3.561c-0.371,-0.717 -1.064,-1.076 -2.077,-1.076c-0.718,0 -1.67,0.173 -2.857,0.519l-0.556,0.186c0.099,1.657 0.148,3.066 0.148,4.228l0,9.608l-4.97,0l0,-9.533c0,-1.336 -0.068,-2.35 -0.204,-3.042c-0.136,-0.692 -0.396,-1.193 -0.779,-1.502c-0.384,-0.309 -0.959,-0.464 -1.725,-0.464c-0.791,0 -1.706,0.173 -2.745,0.519l-0.445,0.149l0,13.873l-4.971,0l0,-18.547Z" style="fill:#fff;fill-rule:nonzero;"/><path d="M111.276,43.746c-2.893,0 -4.983,-0.73 -6.269,-2.189c-1.285,-1.459 -1.928,-3.82 -1.928,-7.085c0,-3.412 0.673,-5.959 2.021,-7.641c1.348,-1.681 3.444,-2.522 6.288,-2.522c2.621,0 4.605,0.698 5.953,2.096c1.348,1.397 2.022,3.493 2.022,6.287l-0.371,3.45l-10.906,0c0.05,0.865 0.204,1.527 0.464,1.984c0.26,0.458 0.68,0.779 1.261,0.965c0.581,0.185 1.391,0.278 2.43,0.278c0.816,0 1.793,-0.025 2.93,-0.074c1.138,-0.05 1.966,-0.099 2.485,-0.149l1.039,-0.111l0.074,3.672c-2.794,0.693 -5.292,1.039 -7.493,1.039Zm3.19,-11.388c0,-1.484 -0.228,-2.516 -0.686,-3.097c-0.457,-0.581 -1.267,-0.872 -2.43,-0.872c-1.187,0 -2.027,0.303 -2.522,0.909c-0.494,0.606 -0.754,1.626 -0.779,3.06l6.417,0Z" style="fill:#fff;fill-rule:nonzero;"/><path d="M122.924,24.754l4.933,0l0,1.039c0.94,-0.545 1.775,-0.928 2.504,-1.15c0.73,-0.223 1.515,-0.334 2.355,-0.334c2.276,0 3.895,0.729 4.86,2.188c0.964,1.459 1.446,3.71 1.446,6.751l0,10.053l-4.97,0l0,-9.904c0,-1.707 -0.204,-2.906 -0.612,-3.598c-0.408,-0.693 -1.181,-1.039 -2.319,-1.039c-0.816,0 -1.743,0.173 -2.782,0.519l-0.445,0.149l0,13.873l-4.97,0l0,-18.547Z" style="fill:#fff;fill-rule:nonzero;"/><path d="M149.743,43.746c-1.435,0 -2.548,-0.223 -3.339,-0.668c-0.791,-0.445 -1.36,-1.174 -1.706,-2.188c-0.346,-1.014 -0.52,-2.411 -0.52,-4.192l0,-7.715l-2.188,0l0,-4.229l2.188,0l0,-5.156l4.971,0l0,5.156l4.563,0l0,4.229l-4.563,0l0,7.604c0,0.964 0.087,1.663 0.26,2.096c0.173,0.432 0.606,0.636 1.298,0.612l2.819,-0.075l0.223,3.969c-0.99,0.223 -1.762,0.371 -2.319,0.446c-0.556,0.074 -1.119,0.111 -1.687,0.111Z" style="fill:#fff;fill-rule:nonzero;"/><path d="M163.43,43.746c-1.632,0 -3.623,-0.223 -5.972,-0.668l-1.187,-0.222l0.148,-4.155c2.993,0.396 5.169,0.594 6.529,0.594c0.915,0 1.638,-0.099 2.17,-0.297c0.532,-0.198 0.797,-0.569 0.797,-1.113c0,-0.495 -0.253,-0.853 -0.76,-1.076c-0.507,-0.222 -1.354,-0.432 -2.541,-0.63c-0.445,-0.05 -0.754,-0.099 -0.927,-0.149c-1.237,-0.222 -2.251,-0.5 -3.042,-0.834c-0.791,-0.334 -1.434,-0.866 -1.929,-1.595c-0.494,-0.73 -0.742,-1.75 -0.742,-3.06c0,-2.102 0.643,-3.66 1.929,-4.674c1.286,-1.014 3.054,-1.521 5.305,-1.521c1.335,0 3.301,0.235 5.897,0.705l1.225,0.222l-0.075,4.118c-2.992,-0.396 -5.205,-0.594 -6.639,-0.594c-0.841,0 -1.503,0.087 -1.985,0.26c-0.482,0.173 -0.723,0.507 -0.723,1.001c0,0.52 0.247,0.884 0.742,1.095c0.494,0.21 1.298,0.414 2.411,0.612l1.298,0.222c1.978,0.396 3.388,0.983 4.229,1.762c0.84,0.779 1.261,2.034 1.261,3.765c0,2.127 -0.606,3.697 -1.818,4.711c-1.211,1.014 -3.079,1.521 -5.601,1.521Z" style="fill:#fff;fill-rule:nonzero;"/><path d="M192.67,36.757l-11.129,0l-1.88,6.693l-2.858,0l7.144,-26.019l6.317,0l7.144,26.019l-2.858,0l-1.88,-6.693Zm-10.49,-2.594l9.851,0l-3.948,-14.25l-1.955,0l-3.948,14.25Z" style="fill:#fff;fill-rule:nonzero;"/><path d="M201.017,24.65l2.783,0l0,1.316c1.128,-0.627 2.162,-1.065 3.102,-1.316c0.94,-0.25 1.923,-0.376 2.951,-0.376c1.604,0 2.845,0.301 3.722,0.903c0.878,0.601 1.498,1.56 1.862,2.876c0.363,1.316 0.545,3.139 0.545,5.471l0,9.926l-2.783,0l0,-9.851c0,-1.78 -0.106,-3.146 -0.319,-4.099c-0.213,-0.952 -0.595,-1.641 -1.147,-2.067c-0.551,-0.427 -1.353,-0.64 -2.406,-0.64c-0.853,0 -1.724,0.107 -2.613,0.32c-0.89,0.213 -1.611,0.457 -2.162,0.733l-0.715,0.338l0,15.266l-2.82,0l0,-18.8Z" style="fill:#fff;fill-rule:nonzero;"/><path d="M225.306,43.826c-1.729,0 -3.045,-0.489 -3.948,-1.467c-0.902,-0.977 -1.353,-2.381 -1.353,-4.211c0,-1.805 0.457,-3.146 1.372,-4.023c0.915,-0.877 2.375,-1.416 4.381,-1.617l5.903,-0.564l0,-1.616c0,-2.382 -1.028,-3.572 -3.084,-3.572c-2.03,0 -4.499,0.163 -7.407,0.489l-0.112,-2.144c2.682,-0.551 5.126,-0.827 7.331,-0.827c2.131,0 3.679,0.483 4.644,1.448c0.965,0.965 1.448,2.5 1.448,4.606l0,9.625c0.075,0.927 0.802,1.479 2.18,1.654l-0.113,2.219c-1.98,0 -3.471,-0.502 -4.474,-1.504c-2.231,1.002 -4.487,1.504 -6.768,1.504Zm0.452,-2.369c1.679,0 3.358,-0.288 5.038,-0.865l0.865,-0.301l0,-6.203l-5.565,0.526c-1.128,0.1 -1.943,0.426 -2.444,0.978c-0.501,0.551 -0.752,1.353 -0.752,2.406c0,2.306 0.953,3.459 2.858,3.459Z" style="fill:#fff;fill-rule:nonzero;"/><rect x="240.271" y="16.454" width="2.82" height="26.996" style="fill:#fff;fill-rule:nonzero;"/><path d="M254.408,43.45l-2.782,0l-5.339,-18.8l2.82,0l4.699,16.356l1.241,0l4.738,-16.356l2.82,0l-7.821,27.147l-2.82,0l2.444,-8.347Z" style="fill:#fff;fill-rule:nonzero;"/><path d="M271.854,43.826c-1.504,0 -3.346,-0.176 -5.527,-0.527l-1.128,-0.188l0.15,-2.444c2.933,0.427 5.089,0.64 6.467,0.64c1.504,0 2.626,-0.245 3.366,-0.734c0.739,-0.488 1.109,-1.272 1.109,-2.35c0,-0.777 -0.182,-1.366 -0.545,-1.767c-0.364,-0.401 -0.828,-0.689 -1.392,-0.864c-0.564,-0.176 -1.359,-0.339 -2.387,-0.489l-0.94,-0.151c-1.504,-0.25 -2.682,-0.551 -3.534,-0.902c-0.853,-0.351 -1.492,-0.846 -1.918,-1.485c-0.426,-0.639 -0.639,-1.523 -0.639,-2.651c0,-2.03 0.614,-3.472 1.842,-4.324c1.228,-0.852 2.97,-1.278 5.226,-1.278c1.78,0 3.597,0.163 5.452,0.489l1.053,0.188l-0.075,2.406c-2.707,-0.401 -4.825,-0.602 -6.354,-0.602c-1.454,0 -2.538,0.226 -3.253,0.677c-0.714,0.451 -1.071,1.153 -1.071,2.106c0,0.676 0.175,1.197 0.526,1.56c0.351,0.363 0.809,0.627 1.372,0.79c0.564,0.163 1.36,0.332 2.388,0.507l0.94,0.188c1.554,0.276 2.757,0.595 3.61,0.959c0.852,0.363 1.485,0.884 1.898,1.56c0.414,0.677 0.621,1.617 0.621,2.82c0,2.031 -0.596,3.516 -1.786,4.456c-1.191,0.94 -3.014,1.41 -5.471,1.41Z" style="fill:#fff;fill-rule:nonzero;"/><path d="M283.435,24.65l2.782,0l0,18.8l-2.782,0l0,-18.8Zm0,-7.52l2.782,0l0,3.271l-2.782,0l0,-3.271Z" style="fill:#fff;fill-rule:nonzero;"/><path d="M297.534,43.826c-1.504,0 -3.346,-0.176 -5.527,-0.527l-1.128,-0.188l0.151,-2.444c2.932,0.427 5.088,0.64 6.467,0.64c1.504,0 2.625,-0.245 3.365,-0.734c0.739,-0.488 1.109,-1.272 1.109,-2.35c0,-0.777 -0.182,-1.366 -0.545,-1.767c-0.364,-0.401 -0.827,-0.689 -1.391,-0.864c-0.564,-0.176 -1.36,-0.339 -2.388,-0.489l-0.94,-0.151c-1.504,-0.25 -2.682,-0.551 -3.534,-0.902c-0.853,-0.351 -1.492,-0.846 -1.918,-1.485c-0.426,-0.639 -0.639,-1.523 -0.639,-2.651c0,-2.03 0.614,-3.472 1.842,-4.324c1.229,-0.852 2.971,-1.278 5.227,-1.278c1.779,0 3.597,0.163 5.452,0.489l1.052,0.188l-0.075,2.406c-2.707,-0.401 -4.825,-0.602 -6.354,-0.602c-1.454,0 -2.538,0.226 -3.252,0.677c-0.715,0.451 -1.072,1.153 -1.072,2.106c0,0.676 0.175,1.197 0.526,1.56c0.351,0.363 0.809,0.627 1.373,0.79c0.564,0.163 1.36,0.332 2.387,0.507l0.94,0.188c1.554,0.276 2.757,0.595 3.61,0.959c0.852,0.363 1.485,0.884 1.898,1.56c0.414,0.677 0.621,1.617 0.621,2.82c0,2.031 -0.595,3.516 -1.786,4.456c-1.191,0.94 -3.014,1.41 -5.471,1.41Z" style="fill:#fff;fill-rule:nonzero;"/><path d="M239.392,11.202c-0.987,-1.084 -1.59,-2.524 -1.59,-4.104c0,-3.365 2.733,-6.098 6.099,-6.098c3.365,0 6.098,2.733 6.098,6.098c0,1.673 -0.675,3.19 -1.768,4.292l18.786,35.312c0.256,-0.066 0.525,-0.101 0.801,-0.101c0.512,0 0.996,0.12 1.425,0.333l21.82,-26.561c-0.581,-0.753 -0.927,-1.696 -0.927,-2.72c0,-2.46 1.997,-4.456 4.456,-4.456c2.46,0 4.457,1.996 4.457,4.456c0,2.46 -1.997,4.456 -4.457,4.456c-0.712,0 -1.386,-0.167 -1.984,-0.465l-21.933,26.698c0.228,0.442 0.357,0.943 0.357,1.473c0,1.774 -1.44,3.215 -3.214,3.215c-1.774,0 -3.214,-1.441 -3.214,-3.215c0,-0.769 0.271,-1.477 0.723,-2.03l-18.733,-35.215c-0.813,0.401 -1.727,0.627 -2.693,0.627c-1.065,0 -2.066,-0.274 -2.938,-0.754l-27.851,38.75c0.25,0.562 0.389,1.183 0.389,1.837c0,2.495 -2.026,4.521 -4.521,4.521c-2.495,0 -4.521,-2.026 -4.521,-4.521c0,-1.288 0.539,-2.45 1.404,-3.274l-11.493,-33.305c-0.045,0.002 -0.09,0.003 -0.135,0.003c-1.91,0 -3.461,-1.551 -3.461,-3.461c0,-1.909 1.551,-3.46 3.461,-3.46c1.909,0 3.46,1.551 3.46,3.46c0,1.154 -0.566,2.176 -1.435,2.805l11.36,32.919c0.429,-0.135 0.886,-0.208 1.36,-0.208c1.086,0 2.083,0.383 2.863,1.023l27.549,-38.33Z" style="fill:#fff;fill-opacity:0.501961;"/></svg>